<svg xmlns="http://www.w3.org/2000/svg" xmlns:xlink="http://www.w3.org/1999/xlink" width="1440" zoomAndPan="magnify" viewBox="0 0 1080 675.000002" height="900" preserveAspectRatio="xMidYMid meet" version="1.0"><defs><clipPath id="d0ead7b7e1"><path d="M 0.796875 0 L 1079.199219 0 L 1079.199219 674 L 0.796875 674 Z M 0.796875 0 " clip-rule="nonzero"/></clipPath><clipPath id="447dc4f213"><path d="M 184 0 L 1079.199219 0 L 1079.199219 674 L 184 674 Z M 184 0 " clip-rule="nonzero"/></clipPath><clipPath id="7d0a352bfb"><path d="M 184.429688 732.148438 L 1349.855469 -218.324219 L 1867.023438 415.804688 L 701.597656 1366.277344 Z M 184.429688 732.148438 " clip-rule="nonzero"/></clipPath><clipPath id="9116943305"><path d="M 184.429688 732.148438 L 1349.429688 -217.972656 L 1865.066406 414.28125 L 700.070312 1364.402344 Z M 184.429688 732.148438 " clip-rule="nonzero"/></clipPath><clipPath id="086f96e236"><path d="M 0.796875 0 L 907 0 L 907 674 L 0.796875 674 Z M 0.796875 0 " clip-rule="nonzero"/></clipPath><clipPath id="f33fa7ea4f"><path d="M -147.402344 -121.273438 L 906.714844 745.707031 L 236.410156 1560.699219 L -817.707031 693.714844 Z M -147.402344 -121.273438 " clip-rule="nonzero"/></clipPath><clipPath id="96fce12ec0"><path d="M -147.402344 -121.273438 L 906.105469 745.207031 L 237.046875 1558.675781 L -816.460938 692.195312 Z M -147.402344 -121.273438 " clip-rule="nonzero"/></clipPath></defs><g clip-path="url(#d0ead7b7e1)"><path fill="#ffffff" d="M 0.796875 0 L 1079.199219 0 L 1079.199219 681.492188 L 0.796875 681.492188 Z M 0.796875 0 " fill-opacity="1" fill-rule="nonzero"/><path fill="#ffffff" d="M 0.796875 0 L 1079.199219 0 L 1079.199219 674 L 0.796875 674 Z M 0.796875 0 " fill-opacity="1" fill-rule="nonzero"/><path fill="#ffffff" d="M 0.796875 0 L 1079.199219 0 L 1079.199219 674 L 0.796875 674 Z M 0.796875 0 " fill-opacity="1" fill-rule="nonzero"/></g><g clip-path="url(#447dc4f213)"><g clip-path="url(#7d0a352bfb)"><g clip-path="url(#9116943305)"><path fill="#ff0000" d="M 184.429688 732.148438 L 1349.855469 -218.324219 L 1865.027344 413.355469 L 699.601562 1363.828125 Z M 184.429688 732.148438 " fill-opacity="1" fill-rule="nonzero"/></g></g></g><g clip-path="url(#086f96e236)"><g clip-path="url(#f33fa7ea4f)"><g clip-path="url(#96fce12ec0)"><path fill="#00009c" d="M -147.402344 -121.273438 L 906.714844 745.707031 L 238.414062 1558.257812 L -815.703125 691.273438 Z M -147.402344 -121.273438 " fill-opacity="1" fill-rule="nonzero"/></g></g></g></svg>